<svg xmlns="http://www.w3.org/2000/svg" aria-label="팔로잉" fill="currentColor" height="22" role="img" viewBox="0 0 24 24" width="22"><title>팔로잉</title><path clip-rule="evenodd" d="M9.874 14.438c3.5 0 6.611 1.662 8.46 4.224.945 1.308.2 3.019-1.26 3.423-1.5.416-3.973.915-7.2.915-3.224 0-5.702-.501-7.21-.92-1.465-.407-2.182-2.126-1.249-3.419 1.85-2.56 4.959-4.223 8.459-4.223Zm0 2c-2.864 0-5.367 1.359-6.837 3.394a.167.167 0 0 0-.025.167c.021.057.076.123.187.155 1.36.377 3.658.846 6.675.846 3.02 0 5.313-.466 6.666-.842.12-.033.177-.103.198-.16a.164.164 0 0 0-.025-.165c-1.47-2.036-3.975-3.395-6.839-3.395Z" fill="currentColor" fill-rule="evenodd"></path><path d="M15.467 12.064a1 1 0 0 1 1.187-.768c2.547.548 4.744 1.994 6.18 3.984a1 1 0 0 1-1.621 1.17c-1.141-1.58-2.906-2.753-4.979-3.199a1 1 0 0 1-.767-1.187Z" fill="currentColor"></path><path clip-rule="evenodd" d="M9.875 3a4.938 4.938 0 1 1 0 9.875 4.938 4.938 0 0 1 0-9.875Zm0 2a2.938 2.938 0 1 0 0 5.875 2.938 2.938 0 0 0 0-5.875Z" fill="currentColor" fill-rule="evenodd"></path><path d="M15.174 1.003a4.5 4.5 0 0 1 3.432 7.188 1 1 0 0 1-1.602-1.197 2.5 2.5 0 0 0-1.906-3.993 1 1 0 0 1 .076-1.998Z" fill="currentColor"></path></svg>